<svg xmlns="http://www.w3.org/2000/svg" xmlns:xlink="http://www.w3.org/1999/xlink" width="500" zoomAndPan="magnify" viewBox="0 0 375 374.999991" height="500" preserveAspectRatio="xMidYMid meet" version="1.0"><defs><g/><clipPath id="578db831cb"><path d="M 51.132812 154 L 72 154 L 72 175 L 51.132812 175 Z M 51.132812 154 " clip-rule="nonzero"/></clipPath><clipPath id="b7abeeb1e7"><path d="M 68 82.804688 L 242 82.804688 L 242 265.804688 L 68 265.804688 Z M 68 82.804688 " clip-rule="nonzero"/></clipPath><clipPath id="41cff5386b"><path d="M 256 165 L 282.882812 165 L 282.882812 173 L 256 173 Z M 256 165 " clip-rule="nonzero"/></clipPath></defs><path fill="#4bc2f1" d="M 250.371094 132.609375 C 238.207031 120.453125 218.492188 120.453125 206.332031 132.609375 L 198.617188 140.328125 L 190.902344 132.609375 C 178.742188 120.453125 159.023438 120.453125 146.863281 132.609375 C 138.378906 141.09375 135.835938 153.253906 139.191406 163.960938 C 138.578125 155.875 141.5 147.578125 148.003906 141.515625 C 154.726562 135.25 164.328125 133.527344 173.167969 135.089844 C 182.632812 136.765625 189.40625 141.832031 196.085938 148.375 C 196.21875 148.507812 198.355469 150.609375 198.355469 150.605469 C 204.886719 144.210938 211.054688 136.082031 220.578125 134.371094 C 234.875 131.804688 251.667969 145 247.664062 160.324219 C 245.84375 167.269531 240.597656 170.480469 235.34375 174.585938 C 232.070312 177.148438 228.761719 179.667969 225.519531 182.269531 C 218.460938 187.933594 211.503906 193.980469 206.019531 201.230469 C 203.058594 205.144531 200.515625 209.464844 199.082031 214.1875 C 198.398438 216.445312 197.972656 218.785156 197.875 221.144531 C 197.777344 223.609375 198.648438 226.019531 198.617188 228.398438 C 198.789062 216.132812 209.234375 205.75 217.886719 198.304688 C 222.039062 194.734375 226.3125 191.339844 230.863281 188.292969 C 235.796875 184.984375 241.1875 182.433594 245.972656 178.886719 C 246.0625 178.816406 246.15625 178.746094 246.25 178.675781 C 253.140625 173.480469 258.613281 166.308594 259.367188 157.488281 C 260.140625 148.4375 256.804688 139.042969 250.371094 132.609375 " fill-opacity="1" fill-rule="nonzero"/><g clip-path="url(#578db831cb)"><path fill="#4bc2f1" d="M 71.617188 164.785156 C 71.617188 170.40625 67.0625 174.960938 61.441406 174.960938 C 55.824219 174.960938 51.265625 170.40625 51.265625 164.785156 C 51.265625 159.164062 55.824219 154.609375 61.441406 154.609375 C 67.0625 154.609375 71.617188 159.164062 71.617188 164.785156 " fill-opacity="1" fill-rule="nonzero"/></g><path fill="#4bc2f1" d="M 250.371094 132.609375 C 238.207031 120.453125 218.492188 120.453125 206.332031 132.609375 L 198.617188 140.328125 L 190.902344 132.609375 C 178.742188 120.453125 159.023438 120.453125 146.863281 132.609375 C 138.378906 141.09375 135.835938 153.253906 139.191406 163.960938 C 138.578125 155.875 141.5 147.578125 148.003906 141.515625 C 154.726562 135.25 164.328125 133.527344 173.167969 135.089844 C 182.632812 136.765625 189.40625 141.832031 196.085938 148.375 C 196.21875 148.507812 198.355469 150.609375 198.355469 150.605469 C 204.886719 144.210938 211.054688 136.082031 220.578125 134.371094 C 234.875 131.804688 251.667969 145 247.664062 160.324219 C 245.84375 167.269531 240.597656 170.480469 235.34375 174.585938 C 232.070312 177.148438 228.761719 179.667969 225.519531 182.269531 C 218.460938 187.933594 211.503906 193.980469 206.019531 201.230469 C 203.058594 205.144531 200.515625 209.464844 199.082031 214.1875 C 198.398438 216.445312 197.972656 218.785156 197.875 221.144531 C 197.777344 223.609375 198.648438 226.019531 198.617188 228.398438 C 198.789062 216.132812 209.234375 205.75 217.886719 198.304688 C 222.039062 194.734375 226.3125 191.339844 230.863281 188.292969 C 235.796875 184.984375 241.1875 182.433594 245.972656 178.886719 C 246.0625 178.816406 246.15625 178.746094 246.25 178.675781 C 253.140625 173.480469 258.613281 166.308594 259.367188 157.488281 C 260.140625 148.4375 256.804688 139.042969 250.371094 132.609375 " fill-opacity="1" fill-rule="nonzero"/><g clip-path="url(#b7abeeb1e7)"><path fill="#4bc2f1" d="M 235.734375 171.0625 C 237.953125 169.371094 240.015625 167.792969 241.6875 165.960938 L 146.9375 165.960938 L 141.71875 212.910156 L 125.359375 82.8125 L 117.277344 161.4375 L 112.066406 138.285156 L 103.765625 161.589844 L 68.144531 161.589844 L 68.144531 167.847656 L 108.183594 167.847656 L 110.707031 160.761719 L 119.585938 200.222656 L 125.984375 137.96875 L 142.101562 266.144531 L 152.539062 172.222656 L 234.222656 172.222656 C 234.726562 171.832031 235.230469 171.441406 235.734375 171.0625 " fill-opacity="1" fill-rule="nonzero"/></g><g clip-path="url(#41cff5386b)"><path fill="#4bc2f1" d="M 259.859375 165.960938 C 258.894531 168.25 257.671875 170.339844 256.296875 172.222656 L 282.71875 172.222656 L 282.71875 165.960938 L 259.859375 165.960938 " fill-opacity="1" fill-rule="nonzero"/></g><g fill="#060074" fill-opacity="1"><g transform="translate(158.005101, 247.914229)"><g><path d="M 13.8125 0 L 8.625 -18.296875 L 8.46875 -18.296875 C 8.707031 -15.179688 8.828125 -12.757812 8.828125 -11.03125 L 8.828125 0 L 2.75 0 L 2.75 -25.40625 L 11.890625 -25.40625 L 17.1875 -7.375 L 17.328125 -7.375 L 22.53125 -25.40625 L 31.6875 -25.40625 L 31.6875 0 L 25.375 0 L 25.375 -11.140625 C 25.375 -11.722656 25.378906 -12.363281 25.390625 -13.0625 C 25.410156 -13.769531 25.492188 -15.503906 25.640625 -18.265625 L 25.484375 -18.265625 L 20.359375 0 Z M 13.8125 0 "/></g></g></g><g fill="#060074" fill-opacity="1"><g transform="translate(192.41895, 247.914229)"><g><path d="M 11.859375 0.34375 C 8.578125 0.34375 6.03125 -0.523438 4.21875 -2.265625 C 2.40625 -4.015625 1.5 -6.5 1.5 -9.71875 C 1.5 -13.039062 2.335938 -15.585938 4.015625 -17.359375 C 5.691406 -19.140625 8.085938 -20.03125 11.203125 -20.03125 C 14.171875 -20.03125 16.460938 -19.257812 18.078125 -17.71875 C 19.703125 -16.175781 20.515625 -13.945312 20.515625 -11.03125 L 20.515625 -8.015625 L 8.359375 -8.015625 C 8.398438 -6.910156 8.800781 -6.046875 9.5625 -5.421875 C 10.320312 -4.796875 11.359375 -4.484375 12.671875 -4.484375 C 13.859375 -4.484375 14.953125 -4.59375 15.953125 -4.8125 C 16.960938 -5.039062 18.050781 -5.429688 19.21875 -5.984375 L 19.21875 -1.09375 C 18.15625 -0.550781 17.054688 -0.175781 15.921875 0.03125 C 14.785156 0.238281 13.429688 0.34375 11.859375 0.34375 Z M 11.453125 -15.421875 C 10.648438 -15.421875 9.976562 -15.164062 9.4375 -14.65625 C 8.90625 -14.15625 8.59375 -13.363281 8.5 -12.28125 L 14.34375 -12.28125 C 14.3125 -13.238281 14.035156 -14 13.515625 -14.5625 C 13.003906 -15.132812 12.316406 -15.421875 11.453125 -15.421875 Z M 11.453125 -15.421875 "/></g></g></g><g fill="#060074" fill-opacity="1"><g transform="translate(214.422958, 247.914229)"><g><path d="M 8.46875 0.34375 C 7.0625 0.34375 5.832031 -0.0507812 4.78125 -0.84375 C 3.738281 -1.644531 2.929688 -2.820312 2.359375 -4.375 C 1.785156 -5.925781 1.5 -7.738281 1.5 -9.8125 C 1.5 -13.007812 2.140625 -15.507812 3.421875 -17.3125 C 4.710938 -19.125 6.476562 -20.03125 8.71875 -20.03125 C 9.820312 -20.03125 10.785156 -19.8125 11.609375 -19.375 C 12.441406 -18.9375 13.203125 -18.195312 13.890625 -17.15625 L 14.03125 -17.15625 C 13.800781 -18.695312 13.6875 -20.238281 13.6875 -21.78125 L 13.6875 -27.046875 L 20.546875 -27.046875 L 20.546875 0 L 15.421875 0 L 13.953125 -2.484375 L 13.6875 -2.484375 C 12.519531 -0.597656 10.78125 0.34375 8.46875 0.34375 Z M 11.25 -5.015625 C 12.332031 -5.015625 13.097656 -5.359375 13.546875 -6.046875 C 13.992188 -6.734375 14.234375 -7.789062 14.265625 -9.21875 L 14.265625 -9.75 C 14.265625 -11.488281 14.015625 -12.722656 13.515625 -13.453125 C 13.023438 -14.191406 12.242188 -14.5625 11.171875 -14.5625 C 10.285156 -14.5625 9.59375 -14.140625 9.09375 -13.296875 C 8.601562 -12.460938 8.359375 -11.269531 8.359375 -9.71875 C 8.359375 -8.1875 8.609375 -7.019531 9.109375 -6.21875 C 9.609375 -5.414062 10.320312 -5.015625 11.25 -5.015625 Z M 11.25 -5.015625 "/></g></g></g><g fill="#060074" fill-opacity="1"><g transform="translate(237.313385, 247.914229)"><g><path d="M 14.171875 0.34375 C 13.171875 0.34375 12.273438 0.179688 11.484375 -0.140625 C 10.703125 -0.472656 9.921875 -1.066406 9.140625 -1.921875 L 8.828125 -1.921875 C 9.035156 -0.546875 9.140625 0.304688 9.140625 0.640625 L 9.140625 8.546875 L 2.34375 8.546875 L 2.34375 -19.6875 L 7.875 -19.6875 L 8.828125 -17.1875 L 9.140625 -17.1875 C 10.398438 -19.082031 12.144531 -20.03125 14.375 -20.03125 C 16.550781 -20.03125 18.257812 -19.125 19.5 -17.3125 C 20.738281 -15.507812 21.359375 -13.035156 21.359375 -9.890625 C 21.359375 -6.710938 20.710938 -4.210938 19.421875 -2.390625 C 18.128906 -0.566406 16.378906 0.34375 14.171875 0.34375 Z M 11.890625 -14.703125 C 10.890625 -14.703125 10.1875 -14.34375 9.78125 -13.625 C 9.382812 -12.914062 9.171875 -11.863281 9.140625 -10.46875 L 9.140625 -9.921875 C 9.140625 -8.234375 9.363281 -7.007812 9.8125 -6.25 C 10.269531 -5.5 10.984375 -5.125 11.953125 -5.125 C 12.828125 -5.125 13.457031 -5.5 13.84375 -6.25 C 14.238281 -7 14.4375 -8.234375 14.4375 -9.953125 C 14.4375 -11.648438 14.238281 -12.863281 13.84375 -13.59375 C 13.457031 -14.332031 12.804688 -14.703125 11.890625 -14.703125 Z M 11.890625 -14.703125 "/></g></g></g><g fill="#060074" fill-opacity="1"><g transform="translate(260.203807, 247.914229)"><g><path d="M 9.140625 0 L 2.34375 0 L 2.34375 -27.046875 L 9.140625 -27.046875 Z M 9.140625 0 "/></g></g></g><g fill="#060074" fill-opacity="1"><g transform="translate(271.709845, 247.914229)"><g><path d="M 16.375 0 L 15.515625 -2.453125 L 15.125 -2.453125 C 14.550781 -1.546875 13.757812 -0.851562 12.75 -0.375 C 11.738281 0.101562 10.546875 0.34375 9.171875 0.34375 C 7.003906 0.34375 5.316406 -0.28125 4.109375 -1.53125 C 2.910156 -2.789062 2.3125 -4.566406 2.3125 -6.859375 L 2.3125 -19.6875 L 9.109375 -19.6875 L 9.109375 -8.9375 C 9.109375 -7.644531 9.289062 -6.664062 9.65625 -6 C 10.019531 -5.34375 10.617188 -5.015625 11.453125 -5.015625 C 12.617188 -5.015625 13.453125 -5.472656 13.953125 -6.390625 C 14.453125 -7.316406 14.703125 -8.878906 14.703125 -11.078125 L 14.703125 -19.6875 L 21.5 -19.6875 L 21.5 0 Z M 16.375 0 "/></g></g></g><g fill="#060074" fill-opacity="1"><g transform="translate(295.55621, 247.914229)"><g><path d="M 17.15625 0 L 0.859375 0 L 0.859375 -3.875 L 9 -14.5 L 1.328125 -14.5 L 1.328125 -19.6875 L 16.765625 -19.6875 L 16.765625 -15.484375 L 8.96875 -5.203125 L 17.15625 -5.203125 Z M 17.15625 0 "/></g></g></g><g fill="#060074" fill-opacity="1"><g transform="translate(313.597416, 247.914229)"><g><path d="M 7.71875 -10.21875 L 1.25 -10.21875 L 1.25 -14.875 L 7.71875 -14.875 L 7.71875 -21.25 L 12.390625 -21.25 L 12.390625 -14.875 L 18.859375 -14.875 L 18.859375 -10.21875 L 12.390625 -10.21875 L 12.390625 -3.9375 L 7.71875 -3.9375 Z M 7.71875 -10.21875 "/></g></g></g></svg>